<svg width="20" height="20" viewBox="0 0 20 20" fill="none" xmlns="http://www.w3.org/2000/svg">
<path d="M1.37389 9.57202C1.31311 9.66845 1.27381 9.77552 1.25796 9.8889L1.25 10.0042C1.25 10.109 1.27081 10.2125 1.31096 10.3093L1.36178 10.4109C5.74474 17.3613 14.2631 17.3583 18.6263 10.4304C18.779 10.1879 18.7899 9.88919 18.6613 9.63934L18.6014 9.54074C14.256 2.64744 5.73782 2.64833 1.37389 9.57202Z" stroke="#BCBCBC" stroke-width="1.5" stroke-linecap="round"/>
<path d="M9.99961 7.5C8.61945 7.5 7.5 8.61926 7.5 10C7.5 11.3802 8.61966 12.5 9.99961 12.5C11.3802 12.5 12.5 11.3803 12.5 10C12.5 8.61909 11.3804 7.5 9.99961 7.5Z" stroke="#BCBCBC" stroke-width="1.5" stroke-linecap="round"/>
</svg>
