<svg width="40" height="40" viewBox="0 0 40 40" fill="none" xmlns="http://www.w3.org/2000/svg">
<path d="M8.18384 16.7606V12.3085C8.18384 9.57452 9.26994 6.95251 11.2032 5.01929C13.1364 3.08607 15.7584 2 18.4924 2C21.2264 2 23.8484 3.08607 25.7816 5.01929C27.7148 6.95251 28.8009 9.57452 28.8009 12.3085V13.2804" stroke="url(#paint0_linear_4323_38804)" stroke-width="1.5" stroke-linecap="round" stroke-linejoin="round"/>
<path d="M25.051 16.8998V12.3081C25.0556 10.7247 24.4872 9.19302 23.4507 7.99596C22.4142 6.79889 20.9797 6.01722 19.4119 5.79525C17.8441 5.57328 16.2489 5.926 14.9209 6.78829C13.5928 7.65058 12.6216 8.96421 12.1865 10.4867C12.0165 11.0736 11.9314 11.6818 11.9339 12.2928V13.2417" stroke="url(#paint1_linear_4323_38804)" stroke-width="1.5" stroke-linecap="round" stroke-linejoin="round"/>
<path d="M33.4919 25.2402V17.7594C33.4919 17.3368 33.1492 16.9941 32.7266 16.9941H4.26529C3.84263 16.9941 3.5 17.3368 3.5 17.7594V36.8459C3.5 37.2685 3.84263 37.6112 4.26529 37.6112H23.6094" stroke="url(#paint2_linear_4323_38804)" stroke-width="1.5" stroke-linecap="round" stroke-linejoin="round"/>
<path d="M15.6833 27.3223C15.6833 26.7668 15.848 26.2238 16.1567 25.7619C16.4653 25.3 16.9039 24.94 17.4171 24.7275C17.9303 24.5149 18.4951 24.4593 19.0399 24.5676C19.5847 24.676 20.0852 24.9435 20.478 25.3363C20.8708 25.7291 21.1383 26.2295 21.2466 26.7744C21.355 27.3192 21.2994 27.8839 21.0868 28.3971C20.8742 28.9103 20.5142 29.349 20.0524 29.6576C19.5905 29.9662 19.0475 30.1309 18.492 30.1309" stroke="url(#paint3_linear_4323_38804)" stroke-width="1.5" stroke-linecap="round" stroke-linejoin="round"/>
<path d="M31.3437 27.7812L33.0391 31.0283L36.5 31.7203L34.0869 34.419L34.5305 38.0937L31.3437 36.5146L28.157 38.0937L28.6006 34.419L26.1875 31.7203L29.6484 31.0283L31.3437 27.7812Z" fill="url(#paint4_linear_4323_38804)"/>
<path d="M31.3437 27.7812L33.0391 31.0283L36.5 31.7203L34.0869 34.419L34.5305 38.0937L31.3437 36.5146L28.157 38.0937L28.6006 34.419L26.1875 31.7203L29.6484 31.0283L31.3437 27.7812Z" stroke="url(#paint5_linear_4323_38804)" stroke-width="1.5" stroke-linecap="round" stroke-linejoin="round"/>
<defs>
<linearGradient id="paint0_linear_4323_38804" x1="11.1297" y1="1.85079" x2="35.3823" y2="14.4428" gradientUnits="userSpaceOnUse">
<stop stop-color="#F16434"/>
<stop offset="1" stop-color="#FF912C"/>
</linearGradient>
<linearGradient id="paint1_linear_4323_38804" x1="13.8081" y1="5.63713" x2="29.1267" y2="13.726" gradientUnits="userSpaceOnUse">
<stop stop-color="#F16434"/>
<stop offset="1" stop-color="#FF912C"/>
</linearGradient>
<linearGradient id="paint2_linear_4323_38804" x1="7.78545" y1="16.8218" x2="39.1557" y2="37.3406" gradientUnits="userSpaceOnUse">
<stop stop-color="#F16434"/>
<stop offset="1" stop-color="#FF912C"/>
</linearGradient>
<linearGradient id="paint3_linear_4323_38804" x1="16.486" y1="24.4667" x2="23.4643" y2="27.6044" gradientUnits="userSpaceOnUse">
<stop stop-color="#F16434"/>
<stop offset="1" stop-color="#FF912C"/>
</linearGradient>
<linearGradient id="paint4_linear_4323_38804" x1="27.661" y1="27.6951" x2="40.4722" y2="33.4553" gradientUnits="userSpaceOnUse">
<stop stop-color="#F16434"/>
<stop offset="1" stop-color="#FF912C"/>
</linearGradient>
<linearGradient id="paint5_linear_4323_38804" x1="27.4717" y1="27.686" x2="41.162" y2="33.5403" gradientUnits="userSpaceOnUse">
<stop stop-color="#F16434"/>
<stop offset="1" stop-color="#FF912C"/>
</linearGradient>
</defs>
</svg>
