<svg width="40" height="34" viewBox="0 0 40 34" fill="none" xmlns="http://www.w3.org/2000/svg">
<g id="Group 1410099706">
<path id="Vector" d="M12.9999 22.6586C11.3491 22.6586 10.3186 22.1226 8.90746 21.4975C5.33962 24.7268 0.99964 22.2528 0.99964 22.2528C3.87521 22.5132 4.96686 19.9871 5.313 18.8151C3.63558 16.9401 2.59718 14.5181 2.59718 11.8357C2.59718 5.95005 7.4963 1.1582 13.5137 1.1582C15.9403 1.1582 18.1851 1.93747 20 3.25348" stroke="url(#paint0_linear_5017_5367)" stroke-width="1.5" stroke-linecap="round" stroke-linejoin="round"/>
<path id="Vector_2" d="M39.0005 32.1313C35.8095 32.4272 34.5981 29.5566 34.214 28.2249C36.0754 26.0941 37.2277 23.3418 37.2277 20.2937C37.2277 13.6054 31.7913 8.16016 25.1139 8.16016C18.4365 8.16016 13 13.6054 13 20.2937C13 26.9819 18.4365 32.4272 25.1139 32.4272C26.9457 32.4272 28.6594 31.9833 30.2253 31.273C34.1845 34.9427 39.0005 32.1313 39.0005 32.1313Z" fill="url(#paint1_linear_5017_5367)"/>
<path id="Vector_3" d="M39.0005 32.1313C35.8095 32.4272 34.5981 29.5566 34.214 28.2249C36.0754 26.0941 37.2277 23.3418 37.2277 20.2937C37.2277 13.6054 31.7913 8.16016 25.1139 8.16016C18.4365 8.16016 13 13.6054 13 20.2937C13 26.9819 18.4365 32.4272 25.1139 32.4272C26.9457 32.4272 28.6594 31.9833 30.2253 31.273C34.1845 34.9427 39.0005 32.1313 39.0005 32.1313Z" stroke="url(#paint2_linear_5017_5367)" stroke-width="1.5" stroke-linecap="round" stroke-linejoin="round"/>
<path id="Star 2" d="M24.5246 14.6217C24.6743 14.1611 25.326 14.1611 25.4757 14.6217L26.4595 17.6497C26.5264 17.8557 26.7184 17.9952 26.935 17.9952L30.1188 17.9952C30.6032 17.9952 30.8046 18.615 30.4127 18.8997L27.837 20.7711C27.6617 20.8984 27.5884 21.1241 27.6553 21.3301L28.6392 24.358C28.7889 24.8187 28.2616 25.2018 27.8698 24.9171L25.294 23.0457C25.1188 22.9184 24.8815 22.9184 24.7062 23.0457L22.1305 24.9171C21.7387 25.2018 21.2114 24.8187 21.3611 24.358L22.3449 21.3301C22.4119 21.1241 22.3385 20.8984 22.1633 20.7711L19.5876 18.8997C19.1957 18.615 19.3971 17.9952 19.8815 17.9952L23.0652 17.9952C23.2818 17.9952 23.4738 17.8557 23.5408 17.6497L24.5246 14.6217Z" fill="white"/>
<g id="Group 1410099705">
<path id="Vector 1703" d="M14.0001 8.16016H7.5" stroke="url(#paint3_linear_5017_5367)" stroke-width="1.5" stroke-linecap="round" stroke-linejoin="round"/>
<path id="Vector 1704" d="M11.5001 11.6602L7.5 11.6602" stroke="url(#paint4_linear_5017_5367)" stroke-width="1.5" stroke-linecap="round" stroke-linejoin="round"/>
</g>
</g>
<defs>
<linearGradient id="paint0_linear_5017_5367" x1="17.2851" y1="0.974348" x2="-7.37277" y2="10.5494" gradientUnits="userSpaceOnUse">
<stop stop-color="#F16434"/>
<stop offset="1" stop-color="#FF912C"/>
</linearGradient>
<linearGradient id="paint1_linear_5017_5367" x1="16.7151" y1="7.95123" x2="48.5782" y2="22.8508" gradientUnits="userSpaceOnUse">
<stop stop-color="#F16434"/>
<stop offset="1" stop-color="#FF912C"/>
</linearGradient>
<linearGradient id="paint2_linear_5017_5367" x1="16.7151" y1="7.95123" x2="48.5782" y2="22.8508" gradientUnits="userSpaceOnUse">
<stop stop-color="#F16434"/>
<stop offset="1" stop-color="#FF912C"/>
</linearGradient>
<linearGradient id="paint3_linear_5017_5367" x1="8.42878" y1="8.1518" x2="9.44615" y2="11.1252" gradientUnits="userSpaceOnUse">
<stop stop-color="#F16434"/>
<stop offset="1" stop-color="#FF912C"/>
</linearGradient>
<linearGradient id="paint4_linear_5017_5367" x1="8.07156" y1="11.6518" x2="9.48223" y2="14.189" gradientUnits="userSpaceOnUse">
<stop stop-color="#F16434"/>
<stop offset="1" stop-color="#FF912C"/>
</linearGradient>
</defs>
</svg>
