<svg width="20" height="20" viewBox="0 0 20 20" fill="none" xmlns="http://www.w3.org/2000/svg">
<path d="M16.6271 17.4984L14.745 14.6377C14.6683 14.521 14.7316 14.3637 14.8678 14.3327L17.9271 13.6374C18.0978 13.5986 18.1398 13.3749 17.9949 13.2768L8.99923 7.18676C8.85831 7.09136 8.6702 7.20436 8.68824 7.37358L9.84588 18.2314C9.86394 18.4008 10.072 18.4715 10.1895 18.3482L12.3465 16.0851C12.4349 15.9924 12.5866 16.0055 12.6577 16.1122L14.4791 18.8443C14.5389 18.9341 14.6592 18.9602 14.7509 18.9033L16.5654 17.7784C16.6611 17.719 16.6889 17.5925 16.6271 17.4984Z" stroke="#8F8F8F" stroke-width="1.5" stroke-linecap="round"/>
<path d="M13.8545 6.8165L16.568 5.13672" stroke="#8F8F8F" stroke-width="1.5" stroke-linecap="round"/>
<path d="M5.95736 11.3903L3.16875 12.9422" stroke="#8F8F8F" stroke-width="1.5" stroke-linecap="round"/>
<path d="M5.06931 7.42251L2.0001 6.54803" stroke="#8F8F8F" stroke-width="1.5" stroke-linecap="round"/>
<path d="M11.4002 4.26046L13 1.49902" stroke="#8F8F8F" stroke-width="1.5" stroke-linecap="round"/>
<path d="M7.26423 4.44561L5.7998 1.86133" stroke="#8F8F8F" stroke-width="1.5" stroke-linecap="round"/>
</svg>
