<svg width="24" height="24" viewBox="0 0 24 24" fill="none" xmlns="http://www.w3.org/2000/svg">
<path d="M17.5495 20.3468C15.3712 21.7578 12.6432 22.3516 9.89851 21.7903C4.47979 20.6821 1.04843 15.4908 2.23435 10.1953C3.42026 4.89971 8.77438 1.5052 14.1931 2.61341C16.9377 3.17473 19.1725 4.78358 20.5557 6.92293M20.5557 6.92293L21 2M20.5557 6.92293L15.8944 6.47101" stroke="#F16434" stroke-width="1.5" stroke-linecap="round" stroke-linejoin="round"/>
<path d="M10.0997 8.2958C10.0459 7.59682 10.5986 7 11.2996 7C12.0007 7 12.5534 7.59682 12.4996 8.2958L11.9993 14.7997C11.9712 15.1653 11.6663 15.4476 11.2996 15.4476C10.933 15.4476 10.6281 15.1653 10.6 14.7997L10.0997 8.2958Z" fill="#F16434"/>
<path d="M12.2744 17.0724C12.2744 17.6107 11.838 18.0471 11.2997 18.0471C10.7614 18.0471 10.325 17.6107 10.325 17.0724C10.325 16.5341 10.7614 16.0977 11.2997 16.0977C11.838 16.0977 12.2744 16.5341 12.2744 17.0724Z" fill="#F16434"/>
<path d="M20.4484 10C21.0922 11.6667 21.7037 15.6 19 18" stroke="#F16434" stroke-width="1.5" stroke-linecap="round" stroke-linejoin="round"/>
</svg>
