<svg width="40" height="40" viewBox="0 0 40 40" fill="none" xmlns="http://www.w3.org/2000/svg">
<path d="M36.7122 19.3561C36.7122 9.7706 28.9416 2 19.3561 2C9.77054 2 1.99994 9.7706 1.99994 19.3561C1.99994 28.9416 9.77054 36.7122 19.3561 36.7122C20.0759 36.7122 20.7855 36.6684 21.4824 36.5833" stroke="url(#paint0_linear_4875_47417)" stroke-width="1.5" stroke-linecap="round" stroke-linejoin="round"/>
<path d="M30 12.5152C27.7246 9.18338 23.921 7 19.6129 7C12.647 7 7 12.7084 7 19.75C7 24.6203 9.70139 28.8529 13.6722 31" stroke="url(#paint1_linear_4875_47417)" stroke-width="1.5" stroke-linecap="round" stroke-linejoin="round"/>
<path d="M32.2547 23.5898V28.1862H38.0001V23.5898V32.7825" stroke="url(#paint2_linear_4875_47417)" stroke-width="1.5" stroke-linecap="round" stroke-linejoin="round"/>
<path d="M23.062 25.888V24.5898C23.062 24.0376 23.5097 23.5898 24.062 23.5898H26.6583C27.2106 23.5898 27.6583 24.0376 27.6583 24.5898V28.1862L23.062 30.4843V32.7825H28.8074" stroke="url(#paint3_linear_4875_47417)" stroke-width="1.5" stroke-linecap="round" stroke-linejoin="round"/>
<path d="M17.742 14.0786C17.6973 13.4968 18.1573 13 18.7408 13H19.0938C19.6773 13 20.1373 13.4968 20.0926 14.0786L19.5947 20.5513C19.5675 20.9053 19.2723 21.1786 18.9173 21.1786C18.5623 21.1786 18.2672 20.9053 18.2399 20.5513L17.742 14.0786Z" fill="url(#paint4_linear_4875_47417)"/>
<path d="M19.861 22.7542C19.861 23.2754 19.4385 23.6979 18.9173 23.6979C18.3961 23.6979 17.9736 23.2754 17.9736 22.7542C17.9736 22.233 18.3961 21.8105 18.9173 21.8105C19.4385 21.8105 19.861 22.233 19.861 22.7542Z" fill="url(#paint5_linear_4875_47417)"/>
<defs>
<linearGradient id="paint0_linear_4875_47417" x1="6.95987" y1="1.82266" x2="40.602" y2="26.5662" gradientUnits="userSpaceOnUse">
<stop stop-color="#F16434"/>
<stop offset="1" stop-color="#FF912C"/>
</linearGradient>
<linearGradient id="paint1_linear_4875_47417" x1="10.6044" y1="6.86972" x2="35.2375" y2="24.7924" gradientUnits="userSpaceOnUse">
<stop stop-color="#F16434"/>
<stop offset="1" stop-color="#FF912C"/>
</linearGradient>
<linearGradient id="paint2_linear_4875_47417" x1="35.7301" y1="23.7907" x2="42.8137" y2="27.0469" gradientUnits="userSpaceOnUse">
<stop stop-color="#F16434"/>
<stop offset="1" stop-color="#FF912C"/>
</linearGradient>
<linearGradient id="paint3_linear_4875_47417" x1="26.5374" y1="23.7907" x2="33.621" y2="27.0469" gradientUnits="userSpaceOnUse">
<stop stop-color="#F16434"/>
<stop offset="1" stop-color="#FF912C"/>
</linearGradient>
<linearGradient id="paint4_linear_4875_47417" x1="17.6297" y1="30.0142" x2="26.7761" y2="21.8253" gradientUnits="userSpaceOnUse">
<stop stop-color="#F16434"/>
<stop offset="1" stop-color="#FF912C"/>
</linearGradient>
<linearGradient id="paint5_linear_4875_47417" x1="17.9516" y1="25.5913" x2="19.0939" y2="22.0119" gradientUnits="userSpaceOnUse">
<stop stop-color="#F16434"/>
<stop offset="1" stop-color="#FF912C"/>
</linearGradient>
</defs>
</svg>
