<svg width="20" height="20" viewBox="0 0 20 20" fill="none" xmlns="http://www.w3.org/2000/svg">
<path d="M3.51565 1.5C3.75337 1.5 10.4229 1.5 15.0411 1.5M17.0004 1.5C16.3847 1.5 15.7964 1.5 15.0411 1.5M15.0411 1.5V3.74851C15.0411 5.14615 14.4178 6.47098 13.3411 7.36207L12.5895 7.9841C11.9888 8.48121 11.6411 9.2203 11.6411 10V10C11.6411 10.7797 11.9888 11.5188 12.5895 12.0159L13.3411 12.6379C14.4178 13.529 15.0411 14.8539 15.0411 16.2515L15.0411 18.5M5.35971 1.5V3.74851C5.35971 5.14615 5.98298 6.47098 7.05971 7.36207L7.81133 7.9841C8.41201 8.48121 8.75971 9.2203 8.75971 10V10C8.75971 10.7797 8.41201 11.5188 7.81133 12.0159L7.05971 12.6379C5.98298 13.529 5.35971 14.8539 5.35971 16.2515L5.35971 18.5M16.8851 18.5H15.0411M15.0411 18.5H5.35971M5.35971 18.5H3.40039" stroke="#8F8F8F" stroke-width="1.5" stroke-linecap="round"/>
<path d="M13.0008 4.98869V3.61328C13.0008 3.33714 12.7769 3.11328 12.5008 3.11328H7.90137C7.62522 3.11328 7.40137 3.33714 7.40137 3.61328V4.98869C7.40137 5.31069 7.55642 5.61299 7.81794 5.80085L9.61764 7.0937C9.96628 7.34415 10.4359 7.34415 10.7845 7.0937L12.5842 5.80085C12.8457 5.61299 13.0008 5.31069 13.0008 4.98869Z" fill="#8F8F8F"/>
</svg>
