<svg width="110" height="18" viewBox="0 0 110 18" fill="none" xmlns="http://www.w3.org/2000/svg">
<path d="M5.45521 14.1569C8.9566 14.1569 10.9104 12.0219 10.9104 8.84809V0.442404H8.18281V8.84809C8.18281 10.56 7.19623 11.6372 5.45521 11.6372C3.71418 11.6372 2.7276 10.56 2.7276 8.84809V0.442404H0V8.84809C0 12.0219 1.95381 14.1569 5.45521 14.1569Z" fill="url(#paint0_linear_4496_15191)"/>
<path d="M13.2005 13.9069H15.7153V12.8682C15.9861 13.1952 16.9921 14.1569 18.7137 14.1569C21.6154 14.1569 23.666 11.9834 23.666 8.88656C23.666 5.77049 21.7702 3.59694 18.8685 3.59694C17.1275 3.59694 16.1215 4.55869 15.8701 4.90492V0H13.2005V13.9069ZM15.7927 8.90579C15.7927 7.02077 16.9147 5.94361 18.3849 5.94361C19.9324 5.94361 20.9771 7.15541 20.9771 8.90579C20.9771 10.6946 19.8938 11.8103 18.3849 11.8103C16.7599 11.8103 15.7927 10.5023 15.7927 8.90579Z" fill="url(#paint1_linear_4496_15191)"/>
<path d="M24.6548 8.90579C24.6548 11.9257 26.7247 14.1569 29.9746 14.1569C32.4894 14.1569 33.8436 12.6566 34.2304 11.9449L32.4701 10.6177C32.1799 11.0409 31.3868 11.8487 30.0133 11.8487C28.5238 11.8487 27.4405 10.887 27.3824 9.54055H34.5013C34.5206 9.3482 34.5206 9.15585 34.5206 8.9635C34.5206 5.67432 32.7409 3.59694 29.6071 3.59694C26.7247 3.59694 24.6548 5.86667 24.6548 8.90579ZM27.4598 7.8094C27.5759 6.6553 28.3883 5.77049 29.6458 5.77049C30.8645 5.77049 31.7543 6.57836 31.8124 7.8094H27.4598Z" fill="url(#paint2_linear_4496_15191)"/>
<path d="M41.3995 3.59694C40.0647 3.59694 39.0588 4.30863 38.6138 5.30885V3.847H36.0023V13.9069H38.6719V9.52131C38.6719 7.52087 39.407 6.28984 41.3995 6.28984V3.59694Z" fill="url(#paint3_linear_4496_15191)"/>
<path d="M46.0683 14.1569C48.2543 14.1569 49.9566 12.9259 49.9566 10.9639C49.9566 7.367 45.1591 8.13639 45.1591 6.53989C45.1591 6.03978 45.5847 5.73202 46.2038 5.73202C47.1516 5.73202 47.7126 6.30907 48.0222 6.69377L49.7825 5.38579C49.2989 4.59716 48.235 3.59694 46.3198 3.59694C44.25 3.59694 42.6443 4.71257 42.6443 6.57836C42.6443 10.1561 47.4225 9.55978 47.4225 11.0986C47.4225 11.6756 46.9389 12.0026 46.1844 12.0026C45.0431 12.0026 44.366 11.4833 43.863 10.9062L42.2961 12.2911C42.8378 13.1567 44.0758 14.1569 46.0683 14.1569Z" fill="url(#paint4_linear_4496_15191)"/>
<path d="M54.8038 14.1569C56.1193 14.1569 57.0865 13.426 57.5121 12.7336V13.9069H60.1236V3.847H57.4541V9.88678C57.4541 10.9639 56.7577 11.7718 55.655 11.7718C54.7458 11.7718 53.972 11.0793 53.972 9.96371V3.847H51.3024V9.65596C51.3024 11.791 51.9215 14.1569 54.8038 14.1569Z" fill="url(#paint5_linear_4496_15191)"/>
<path d="M62.8641 16.6767C63.7733 17.1768 65.1854 17.6 66.5783 17.6C69.5574 17.6 72.0141 16.3882 72.0141 12.6374V3.847H69.4993V4.90492C69.2091 4.52022 68.1839 3.59694 66.4815 3.59694C63.5992 3.59694 61.5486 5.78973 61.5486 8.88656C61.5486 11.9834 63.4638 14.1569 66.3848 14.1569C68.1452 14.1569 69.1318 13.1567 69.3446 12.8682V13.3298C69.3446 14.8879 68.0098 15.3303 66.5589 15.3303C65.1661 15.3303 64.0054 14.8109 63.6766 14.6378L62.8641 16.6767ZM69.4219 8.86732C69.4219 10.6562 68.3773 11.8103 66.8297 11.8103C65.3209 11.8103 64.2375 10.6369 64.2375 8.86732C64.2375 7.0977 65.3015 5.94361 66.8104 5.94361C68.3773 5.94361 69.4219 7.15541 69.4219 8.86732Z" fill="url(#paint6_linear_4496_15191)"/>
<path d="M74.7656 16.6767C75.6748 17.1768 77.087 17.6 78.4798 17.6C81.4589 17.6 83.9156 16.3882 83.9156 12.6374V3.847H81.4008V4.90492C81.1107 4.52022 80.0854 3.59694 78.383 3.59694C75.5007 3.59694 73.4502 5.78973 73.4502 8.88656C73.4502 11.9834 75.3653 14.1569 78.2863 14.1569C80.0467 14.1569 81.0333 13.1567 81.2461 12.8682V13.3298C81.2461 14.8879 79.9113 15.3303 78.4604 15.3303C77.0676 15.3303 75.9069 14.8109 75.5781 14.6378L74.7656 16.6767ZM81.3235 8.86732C81.3235 10.6562 80.2788 11.8103 78.7313 11.8103C77.2224 11.8103 76.1391 10.6369 76.1391 8.86732C76.1391 7.0977 77.203 5.94361 78.7119 5.94361C80.2788 5.94361 81.3235 7.15541 81.3235 8.86732Z" fill="url(#paint7_linear_4496_15191)"/>
<path d="M85.3904 8.90579C85.3904 11.9257 87.4603 14.1569 90.7102 14.1569C93.225 14.1569 94.5791 12.6566 94.966 11.9449L93.2056 10.6177C92.9155 11.0409 92.1223 11.8487 90.7488 11.8487C89.2593 11.8487 88.176 10.887 88.118 9.54055H95.2368C95.2562 9.3482 95.2562 9.15585 95.2562 8.9635C95.2562 5.67432 93.4765 3.59694 90.3426 3.59694C87.4603 3.59694 85.3904 5.86667 85.3904 8.90579ZM88.1954 7.8094C88.3114 6.6553 89.1239 5.77049 90.3813 5.77049C91.6 5.77049 92.4899 6.57836 92.5479 7.8094H88.1954Z" fill="url(#paint8_linear_4496_15191)"/>
<path d="M99.833 14.1569C102.019 14.1569 103.721 12.9259 103.721 10.9639C103.721 7.367 98.9238 8.13639 98.9238 6.53989C98.9238 6.03978 99.3494 5.73202 99.9684 5.73202C100.916 5.73202 101.477 6.30907 101.787 6.69377L103.547 5.38579C103.064 4.59716 102 3.59694 100.084 3.59694C98.0146 3.59694 96.409 4.71257 96.409 6.57836C96.409 10.1561 101.187 9.55978 101.187 11.0986C101.187 11.6756 100.704 12.0026 99.9491 12.0026C98.8077 12.0026 98.1307 11.4833 97.6277 10.9062L96.0608 12.2911C96.6024 13.1567 97.8405 14.1569 99.833 14.1569Z" fill="url(#paint9_linear_4496_15191)"/>
<path d="M105.396 3.847H104.313V6.00131H105.377V9.96371C105.377 12.6951 106.441 14.0415 108.859 14.0415C109.594 14.0415 110 13.9454 110 13.9454V11.6756C109.787 11.6949 109.69 11.6949 109.516 11.6949C108.491 11.6949 108.027 11.3871 108.027 9.88678V6.00131H109.923V3.847H108.027V1.73115H105.396V3.847Z" fill="url(#paint10_linear_4496_15191)"/>
<defs>
<linearGradient id="paint0_linear_4496_15191" x1="15.7176" y1="-0.147082" x2="34.1819" y2="51.7409" gradientUnits="userSpaceOnUse">
<stop stop-color="#F16434"/>
<stop offset="1" stop-color="#FF912C"/>
</linearGradient>
<linearGradient id="paint1_linear_4496_15191" x1="15.7176" y1="-0.147082" x2="34.1819" y2="51.7409" gradientUnits="userSpaceOnUse">
<stop stop-color="#F16434"/>
<stop offset="1" stop-color="#FF912C"/>
</linearGradient>
<linearGradient id="paint2_linear_4496_15191" x1="15.7176" y1="-0.147082" x2="34.1819" y2="51.7409" gradientUnits="userSpaceOnUse">
<stop stop-color="#F16434"/>
<stop offset="1" stop-color="#FF912C"/>
</linearGradient>
<linearGradient id="paint3_linear_4496_15191" x1="15.7176" y1="-0.147082" x2="34.1819" y2="51.7409" gradientUnits="userSpaceOnUse">
<stop stop-color="#F16434"/>
<stop offset="1" stop-color="#FF912C"/>
</linearGradient>
<linearGradient id="paint4_linear_4496_15191" x1="15.7176" y1="-0.147082" x2="34.1819" y2="51.7409" gradientUnits="userSpaceOnUse">
<stop stop-color="#F16434"/>
<stop offset="1" stop-color="#FF912C"/>
</linearGradient>
<linearGradient id="paint5_linear_4496_15191" x1="15.7176" y1="-0.147082" x2="34.1819" y2="51.7409" gradientUnits="userSpaceOnUse">
<stop stop-color="#F16434"/>
<stop offset="1" stop-color="#FF912C"/>
</linearGradient>
<linearGradient id="paint6_linear_4496_15191" x1="15.7176" y1="-0.147082" x2="34.1819" y2="51.7409" gradientUnits="userSpaceOnUse">
<stop stop-color="#F16434"/>
<stop offset="1" stop-color="#FF912C"/>
</linearGradient>
<linearGradient id="paint7_linear_4496_15191" x1="15.7176" y1="-0.147082" x2="34.1819" y2="51.7409" gradientUnits="userSpaceOnUse">
<stop stop-color="#F16434"/>
<stop offset="1" stop-color="#FF912C"/>
</linearGradient>
<linearGradient id="paint8_linear_4496_15191" x1="15.7176" y1="-0.147082" x2="34.1819" y2="51.7409" gradientUnits="userSpaceOnUse">
<stop stop-color="#F16434"/>
<stop offset="1" stop-color="#FF912C"/>
</linearGradient>
<linearGradient id="paint9_linear_4496_15191" x1="15.7176" y1="-0.147082" x2="34.1819" y2="51.7409" gradientUnits="userSpaceOnUse">
<stop stop-color="#F16434"/>
<stop offset="1" stop-color="#FF912C"/>
</linearGradient>
<linearGradient id="paint10_linear_4496_15191" x1="15.7176" y1="-0.147082" x2="34.1819" y2="51.7409" gradientUnits="userSpaceOnUse">
<stop stop-color="#F16434"/>
<stop offset="1" stop-color="#FF912C"/>
</linearGradient>
</defs>
</svg>
