<svg width="100" height="18" viewBox="0 0 100 18" fill="none" xmlns="http://www.w3.org/2000/svg">
<path d="M4.95928 13.6881C8.14236 13.6881 9.91856 11.7471 9.91856 8.86183V1.2203H7.43892V8.86183C7.43892 10.4181 6.54203 11.3973 4.95928 11.3973C3.37653 11.3973 2.47964 10.4181 2.47964 8.86183V1.2203H0V8.86183C0 11.7471 1.7762 13.6881 4.95928 13.6881Z" fill="white"/>
<path d="M12.0004 13.4607H14.2866V12.5165C14.5328 12.8137 15.4473 13.6881 17.0125 13.6881C19.6504 13.6881 21.5145 11.7121 21.5145 8.8968C21.5145 6.06402 19.7911 4.08806 17.1532 4.08806C15.5704 4.08806 14.6559 4.96238 14.4273 5.27713V0.818115H12.0004V13.4607ZM14.357 8.91429C14.357 7.20063 15.377 6.22139 16.7135 6.22139C18.1204 6.22139 19.0701 7.32303 19.0701 8.91429C19.0701 10.5405 18.0852 11.5547 16.7135 11.5547C15.2363 11.5547 14.357 10.3657 14.357 8.91429Z" fill="white"/>
<path d="M22.4135 8.91429C22.4135 11.6596 24.2952 13.6881 27.2496 13.6881C29.5358 13.6881 30.7669 12.3241 31.1186 11.6771L29.5183 10.4706C29.2545 10.8553 28.5334 11.5897 27.2848 11.5897C25.9307 11.5897 24.9459 10.7154 24.8931 9.49134H31.3648C31.3824 9.31648 31.3824 9.14161 31.3824 8.96675C31.3824 5.97658 29.7645 4.08806 26.9155 4.08806C24.2952 4.08806 22.4135 6.15145 22.4135 8.91429ZM24.9635 7.91757C25.069 6.86839 25.8076 6.06402 26.9507 6.06402C28.0586 6.06402 28.8676 6.79844 28.9203 7.91757H24.9635Z" fill="white"/>
<path d="M37.6359 4.08806C36.4224 4.08806 35.508 4.73505 35.1035 5.64434V4.31538H32.7294V13.4607H35.1562V9.47385C35.1562 7.65527 35.8245 6.53615 37.6359 6.53615V4.08806Z" fill="white"/>
<path d="M41.8803 13.6881C43.8675 13.6881 45.4151 12.5689 45.4151 10.7853C45.4151 7.51538 41.0538 8.21484 41.0538 6.76347C41.0538 6.30883 41.4407 6.02904 42.0034 6.02904C42.8651 6.02904 43.3751 6.55363 43.6565 6.90336L45.2568 5.71429C44.8172 4.99735 43.85 4.08806 42.1089 4.08806C40.2272 4.08806 38.7676 5.10227 38.7676 6.79844C38.7676 10.0509 43.1113 9.50883 43.1113 10.9077C43.1113 11.4323 42.6717 11.7296 41.9858 11.7296C40.9483 11.7296 40.3327 11.2575 39.8755 10.7329L38.451 11.9919C38.9434 12.7788 40.069 13.6881 41.8803 13.6881Z" fill="white"/>
<path d="M49.8217 13.6881C51.0175 13.6881 51.8968 13.0236 52.2837 12.3941V13.4607H54.6578V4.31538H52.231V9.80609C52.231 10.7853 51.5979 11.5198 50.5955 11.5198C49.7689 11.5198 49.0655 10.8902 49.0655 9.87604V4.31538H46.6386V9.59626C46.6386 11.5372 47.2013 13.6881 49.8217 13.6881Z" fill="white"/>
<path d="M57.1492 15.9788C57.9757 16.4334 59.2595 16.8181 60.5257 16.8181C63.234 16.8181 65.4674 15.7165 65.4674 12.3066V4.31538H63.1812V5.27713C62.9174 4.9274 61.9853 4.08806 60.4378 4.08806C57.8174 4.08806 55.9533 6.0815 55.9533 8.8968C55.9533 11.7121 57.6943 13.6881 60.3498 13.6881C61.9502 13.6881 62.8471 12.7788 63.0405 12.5165V12.9361C63.0405 14.3525 61.8271 14.7547 60.5081 14.7547C59.2419 14.7547 58.1867 14.2826 57.8878 14.1252L57.1492 15.9788ZM63.1108 8.87932C63.1108 10.5055 62.1612 11.5547 60.7543 11.5547C59.3826 11.5547 58.3978 10.4881 58.3978 8.87932C58.3978 7.27057 59.365 6.22139 60.7367 6.22139C62.1612 6.22139 63.1108 7.32303 63.1108 8.87932Z" fill="white"/>
<path d="M67.9687 15.9788C68.7953 16.4334 70.0791 16.8181 71.3453 16.8181C74.0535 16.8181 76.2869 15.7165 76.2869 12.3066V4.31538H74.0008V5.27713C73.737 4.9274 72.8049 4.08806 71.2573 4.08806C68.637 4.08806 66.7729 6.0815 66.7729 8.8968C66.7729 11.7121 68.5139 13.6881 71.1694 13.6881C72.7697 13.6881 73.6666 12.7788 73.8601 12.5165V12.9361C73.8601 14.3525 72.6466 14.7547 71.3277 14.7547C70.0615 14.7547 69.0063 14.2826 68.7073 14.1252L67.9687 15.9788ZM73.9304 8.87932C73.9304 10.5055 72.9808 11.5547 71.5739 11.5547C70.2022 11.5547 69.2173 10.4881 69.2173 8.87932C69.2173 7.27057 70.1846 6.22139 71.5563 6.22139C72.9808 6.22139 73.9304 7.32303 73.9304 8.87932Z" fill="white"/>
<path d="M77.6276 8.91429C77.6276 11.6596 79.5093 13.6881 82.4638 13.6881C84.75 13.6881 85.981 12.3241 86.3327 11.6771L84.7324 10.4706C84.4686 10.8553 83.7476 11.5897 82.499 11.5897C81.1448 11.5897 80.16 10.7154 80.1073 9.49134H86.5789C86.5965 9.31648 86.5965 9.14161 86.5965 8.96675C86.5965 5.97658 84.9786 4.08806 82.1297 4.08806C79.5093 4.08806 77.6276 6.15145 77.6276 8.91429ZM80.1776 7.91757C80.2831 6.86839 81.0217 6.06402 82.1648 6.06402C83.2727 6.06402 84.0817 6.79844 84.1345 7.91757H80.1776Z" fill="white"/>
<path d="M90.7573 13.6881C92.7445 13.6881 94.2921 12.5689 94.2921 10.7853C94.2921 7.51538 89.9307 8.21484 89.9307 6.76347C89.9307 6.30883 90.3176 6.02904 90.8804 6.02904C91.7421 6.02904 92.2521 6.55363 92.5335 6.90336L94.1338 5.71429C93.6942 4.99735 92.7269 4.08806 90.9859 4.08806C89.1042 4.08806 87.6445 5.10227 87.6445 6.79844C87.6445 10.0509 91.9883 9.50883 91.9883 10.9077C91.9883 11.4323 91.5486 11.7296 90.8628 11.7296C89.8252 11.7296 89.2097 11.2575 88.7525 10.7329L87.328 11.9919C87.8204 12.7788 88.9459 13.6881 90.7573 13.6881Z" fill="white"/>
<path d="M95.8145 4.31538H94.8297V6.27385H95.7969V9.87604C95.7969 12.3591 96.7642 13.5831 98.9624 13.5831C99.6307 13.5831 100 13.4957 100 13.4957V11.4323C99.8066 11.4498 99.7186 11.4498 99.5604 11.4498C98.6283 11.4498 98.2062 11.17 98.2062 9.80609V6.27385H99.9297V4.31538H98.2062V2.39189H95.8145V4.31538Z" fill="white"/>
</svg>
