<svg width="81" height="14" viewBox="0 0 81 14" fill="none" xmlns="http://www.w3.org/2000/svg">
<path d="M4.844 11.182C2.31 11.182 0.896 9.628 0.896 7.318V1.2H2.87V7.318C2.87 8.564 3.584 9.348 4.844 9.348C6.104 9.348 6.818 8.564 6.818 7.318V1.2H8.792V7.318C8.792 9.628 7.378 11.182 4.844 11.182ZM10.4494 11V0.877999H12.3814V4.448C12.5634 4.196 13.2914 3.496 14.5514 3.496C16.6514 3.496 18.0234 5.078 18.0234 7.346C18.0234 9.6 16.5394 11.182 14.4394 11.182C13.1934 11.182 12.4654 10.482 12.2694 10.244V11H10.4494ZM12.3254 7.36C12.3254 8.522 13.0254 9.474 14.2014 9.474C15.2934 9.474 16.0774 8.662 16.0774 7.36C16.0774 6.086 15.3214 5.204 14.2014 5.204C13.1374 5.204 12.3254 5.988 12.3254 7.36ZM18.739 7.36C18.739 5.148 20.237 3.496 22.323 3.496C24.591 3.496 25.879 5.008 25.879 7.402C25.879 7.542 25.879 7.682 25.865 7.822H20.713C20.755 8.802 21.539 9.502 22.617 9.502C23.611 9.502 24.185 8.914 24.395 8.606L25.669 9.572C25.389 10.09 24.409 11.182 22.589 11.182C20.237 11.182 18.739 9.558 18.739 7.36ZM20.769 6.562H23.919C23.877 5.666 23.233 5.078 22.351 5.078C21.441 5.078 20.853 5.722 20.769 6.562ZM30.8573 3.496V5.456C29.4153 5.456 28.8833 6.352 28.8833 7.808V11H26.9513V3.678H28.8413V4.742C29.1633 4.014 29.8913 3.496 30.8573 3.496ZM34.2362 11.182C32.7942 11.182 31.8982 10.454 31.5062 9.824L32.6402 8.816C33.0042 9.236 33.4942 9.614 34.3202 9.614C34.8662 9.614 35.2162 9.376 35.2162 8.956C35.2162 7.836 31.7582 8.27 31.7582 5.666C31.7582 4.308 32.9202 3.496 34.4182 3.496C35.8042 3.496 36.5742 4.224 36.9242 4.798L35.6502 5.75C35.4262 5.47 35.0202 5.05 34.3342 5.05C33.8862 5.05 33.5782 5.274 33.5782 5.638C33.5782 6.8 37.0502 6.24 37.0502 8.858C37.0502 10.286 35.8182 11.182 34.2362 11.182ZM40.5582 11.182C38.4722 11.182 38.0242 9.46 38.0242 7.906V3.678H39.9562V8.13C39.9562 8.942 40.5162 9.446 41.1742 9.446C41.9722 9.446 42.4762 8.858 42.4762 8.074V3.678H44.4082V11H42.5182V10.146C42.2102 10.65 41.5102 11.182 40.5582 11.182ZM46.3915 13.016L46.9795 11.532C47.2175 11.658 48.0575 12.036 49.0655 12.036C50.1155 12.036 51.0815 11.714 51.0815 10.58V10.244C50.9275 10.454 50.2135 11.182 48.9395 11.182C46.8255 11.182 45.4395 9.6 45.4395 7.346C45.4395 5.092 46.9235 3.496 49.0095 3.496C50.2415 3.496 50.9835 4.168 51.1935 4.448V3.678H53.0135V10.076C53.0135 12.806 51.2355 13.688 49.0795 13.688C48.0715 13.688 47.0495 13.38 46.3915 13.016ZM51.1375 7.332C51.1375 6.086 50.3815 5.204 49.2475 5.204C48.1555 5.204 47.3855 6.044 47.3855 7.332C47.3855 8.62 48.1695 9.474 49.2615 9.474C50.3815 9.474 51.1375 8.634 51.1375 7.332ZM55.0048 13.016L55.5928 11.532C55.8308 11.658 56.6708 12.036 57.6788 12.036C58.7288 12.036 59.6948 11.714 59.6948 10.58V10.244C59.5408 10.454 58.8268 11.182 57.5528 11.182C55.4388 11.182 54.0528 9.6 54.0528 7.346C54.0528 5.092 55.5368 3.496 57.6228 3.496C58.8548 3.496 59.5968 4.168 59.8068 4.448V3.678H61.6268V10.076C61.6268 12.806 59.8488 13.688 57.6928 13.688C56.6848 13.688 55.6628 13.38 55.0048 13.016ZM59.7508 7.332C59.7508 6.086 58.9948 5.204 57.8608 5.204C56.7688 5.204 55.9988 6.044 55.9988 7.332C55.9988 8.62 56.7828 9.474 57.8748 9.474C58.9948 9.474 59.7508 8.634 59.7508 7.332ZM62.6941 7.36C62.6941 5.148 64.1921 3.496 66.2781 3.496C68.5461 3.496 69.8341 5.008 69.8341 7.402C69.8341 7.542 69.8341 7.682 69.8201 7.822H64.6681C64.7101 8.802 65.4941 9.502 66.5721 9.502C67.5661 9.502 68.1401 8.914 68.3501 8.606L69.6241 9.572C69.3441 10.09 68.3641 11.182 66.5441 11.182C64.1921 11.182 62.6941 9.558 62.6941 7.36ZM64.7241 6.562H67.8741C67.8321 5.666 67.1881 5.078 66.3061 5.078C65.3961 5.078 64.8081 5.722 64.7241 6.562ZM73.1464 11.182C71.7044 11.182 70.8084 10.454 70.4164 9.824L71.5504 8.816C71.9144 9.236 72.4044 9.614 73.2304 9.614C73.7764 9.614 74.1264 9.376 74.1264 8.956C74.1264 7.836 70.6684 8.27 70.6684 5.666C70.6684 4.308 71.8304 3.496 73.3284 3.496C74.7144 3.496 75.4844 4.224 75.8344 4.798L74.5604 5.75C74.3364 5.47 73.9304 5.05 73.2444 5.05C72.7964 5.05 72.4884 5.274 72.4884 5.638C72.4884 6.8 75.9604 6.24 75.9604 8.858C75.9604 10.286 74.7284 11.182 73.1464 11.182ZM77.1724 3.678V2.138H79.0764V3.678H80.4484V5.246H79.0764V8.074C79.0764 9.166 79.4124 9.39 80.1544 9.39C80.2804 9.39 80.3504 9.39 80.5044 9.376V11.028C80.5044 11.028 80.2104 11.098 79.6784 11.098C77.9284 11.098 77.1584 10.118 77.1584 8.13V5.246H76.3884V3.678H77.1724Z" fill="#BCBCBC"/>
</svg>
