<svg width="22" height="21" viewBox="0 0 22 21" fill="none" xmlns="http://www.w3.org/2000/svg">
<g id="Group 1410100068">
<path id="Vector 1763" d="M11.0967 5.92188L12.4484 1.50195L15.6016 2.07446" stroke="#F16434" stroke-width="1.5" stroke-linecap="round" stroke-linejoin="round"/>
<circle id="Ellipse 3970" cx="17" cy="2" r="2" fill="#F16434"/>
<ellipse id="Ellipse 3971" cx="10.9248" cy="13" rx="8.9287" ry="7" stroke="#F16434" stroke-width="1.5" stroke-linecap="round" stroke-linejoin="round"/>
<path id="Ellipse 3974" d="M19.8439 10.4129C20.5739 9.79131 20.7229 8.54911 20.147 7.45905C19.5031 6.24037 18.1971 5.67333 17.2299 6.19252C16.8054 6.42037 16.5168 6.81956 16.3809 7.29882" stroke="#F16434" stroke-width="1.5" stroke-linecap="round" stroke-linejoin="round"/>
<path id="Ellipse 3975" d="M2.15608 10.4129C1.42605 9.79131 1.2771 8.54911 1.853 7.45905C2.49685 6.24037 3.80288 5.67333 4.7701 6.19252C5.19457 6.42037 5.48324 6.81956 5.61914 7.29882" stroke="#F16434" stroke-width="1.5" stroke-linecap="round" stroke-linejoin="round"/>
<g id="Group 1410100068_2">
<path id="Vector" d="M13.9003 10C13.7041 10 13.5123 10.0586 13.3491 10.1685C13.186 10.2784 13.0588 10.4346 12.9837 10.6173C12.9086 10.8 12.889 11.0011 12.9273 11.1951C12.9655 11.3891 13.06 11.5673 13.1988 11.7071C13.3375 11.847 13.5143 11.9422 13.7067 11.9808C13.8992 12.0194 14.0987 11.9996 14.2799 11.9239C14.4612 11.8482 14.6162 11.72 14.7252 11.5556C14.8342 11.3911 14.8924 11.1978 14.8924 11C14.8924 10.7348 14.7878 10.4804 14.6018 10.2929C14.4157 10.1054 14.1634 10 13.9003 10Z" fill="#F16434"/>
<path id="Vector_2" d="M7.94813 10C7.75192 10 7.56011 10.0586 7.39696 10.1685C7.23382 10.2784 7.10666 10.4346 7.03157 10.6173C6.95648 10.8 6.93684 11.0011 6.97512 11.1951C7.0134 11.3891 7.10788 11.5673 7.24663 11.7071C7.38537 11.847 7.56214 11.9422 7.75459 11.9808C7.94703 12.0194 8.14651 11.9996 8.32778 11.9239C8.50906 11.8482 8.664 11.72 8.77301 11.5556C8.88203 11.3911 8.94021 11.1978 8.94021 11C8.94021 10.7348 8.83569 10.4804 8.64964 10.2929C8.46359 10.1054 8.21125 10 7.94813 10Z" fill="#F16434"/>
<path id="Vector 1764" d="M7.7002 15C7.7002 15 8.94029 16 10.9244 16C12.9086 16 14.1487 15 14.1487 15" stroke="#F16434" stroke-width="1.5" stroke-linecap="round" stroke-linejoin="round"/>
</g>
</g>
</svg>
