<svg width="18" height="18" viewBox="0 0 18 18" fill="none" xmlns="http://www.w3.org/2000/svg">
<path d="M13.8563 13.4011C13.3101 14.0078 12.6538 14.5048 11.9224 14.8657L12.1389 16.5254L9.93077 17.1004L9.3138 15.5491C8.50002 15.5895 7.68596 15.4754 6.91447 15.2128L5.89701 16.5399L3.94868 15.3864L4.60534 13.8459C4.00618 13.2987 3.5164 12.6421 3.16213 11.9113L1.50605 12.1283L0.899902 9.91526L2.45135 9.29329C2.40927 8.47909 2.52191 7.66429 2.78329 6.89222L1.45915 5.87249L2.6101 3.91981L4.14351 4.58155C4.69128 3.9814 5.34747 3.49062 6.07741 3.13512L5.86093 1.47535L8.06903 0.900391L8.686 2.45169C9.49948 2.41183 10.3132 2.52466 11.0853 2.78436L12.1028 1.42472L14.0692 2.57825L13.4089 4.11508C14.0147 4.66197 14.5107 5.31984 14.8701 6.05329L16.5262 5.83633L17.0999 8.04936L15.5485 8.67133C15.5905 9.48553 15.4779 10.3003 15.2165 11.0724L16.5407 12.0921L15.3897 14.0629L13.8563 13.4011Z" stroke="#636363" stroke-width="1.5" stroke-linecap="round" stroke-linejoin="round"/>
<circle cx="8.99995" cy="9.0002" r="1.8" stroke="#F16434" stroke-width="1.5" stroke-linecap="round" stroke-linejoin="round"/>
</svg>
