<?xml version="1.0"?>
<svg xmlns="http://www.w3.org/2000/svg" viewBox="0 0 88.9 33.2">
  <style>.J{fill:#fff}</style>
  <path class="J" d="M1.4 24.7v-4.2c2.6 1.2 4.8 1.8 6.4 1.8 2.1 0 3.1-.8 3.1-2.3 0-.8-.5-1.4-1.4-2.1-.4-.3-1.3-.8-2.7-1.4s-2.4-1.2-3-1.8c-1.4-1.2-2.2-2.8-2.2-4.6s.6-3.3 1.9-4.4S6.6 4 8.9 4c1.9 0 4 .5 6.4 1.5L13.8 9c-2.1-.8-3.6-1.3-4.7-1.3-1.1.1-1.9.3-2.3.7-.5.4-.7.8-.7 1.3s.1.9.3 1.2.5.6.9.9 1.5.8 3.2 1.7c1.8.8 3 1.7 3.8 2.7s1.1 2.1 1.1 3.5c0 1.9-.7 3.5-2.1 4.6S10 26 7.6 26s-4.4-.4-6.2-1.3zm17.5 1V9.3h3.4l.6 2.1h.2c1-1.6 2.7-2.4 5-2.4 1.9 0 3.3.5 4.3 1.5S34 13.1 34 15v10.7h-4.5v-9.5c0-1.2-.2-2.1-.6-2.7s-1.1-.9-2-.9c-1.2 0-2.2.4-2.7 1.2s-.8 2.2-.8 4.1v7.7l-4.5.1zm18.7-8.2c0-2.7.7-4.8 2.1-6.2C41.1 9.8 43 9 45.6 9c1.6 0 3 .3 4.1 1 1.2.7 2.1 1.7 2.8 2.9a10.64 10.64 0 0 1 1 4.5c0 2.7-.7 4.8-2.1 6.3S48 26 45.5 26c-1.6 0-3-.3-4.2-1s-2.1-1.7-2.8-3c-.6-1.3-.9-2.8-.9-4.5zm5.3-3.7c-.5.8-.8 2-.8 3.6s.3 2.9.8 3.7 1.4 1.2 2.6 1.2 2.1-.4 2.6-1.2.8-2 .8-3.7c0-1.6-.3-2.8-.8-3.6s-1.4-1.2-2.6-1.2-2 .4-2.6 1.2zm11.3-4.5h4.7l3.2 9.3a14.71 14.71 0 0 1 .7 3.4h.1c0-.9.3-2.1.7-3.4l3.1-9.3h4.7L65 25.7h-4.6L54.2 9.3z"/>
  <path class="J" d="M71.6 25.7L74 14.8h2.9l-2.3 10.9h-3zm2.8-13.5c0-.6.2-1 .5-1.3s.7-.4 1.3-.4c.8 0 1.3.4 1.3 1.2 0 .5-.1.9-.4 1.3-.3.3-.6.5-1.2.5-1-.1-1.5-.5-1.5-1.3zm4.8 12.6c-.8-.8-1.1-1.8-1.1-3.1s.2-2.5.7-3.6 1.1-1.9 2-2.5 1.9-.9 3.2-.9c1.2 0 2.2.4 2.9 1.2s1.1 1.8 1.1 3.2-.2 2.6-.7 3.6-1.1 1.9-2 2.5-1.9.9-3.1.9-2.2-.6-3-1.3zm1.8-3.1c0 1.2.5 1.8 1.5 1.8.5 0 .9-.2 1.3-.6s.7-1 .9-1.7.3-1.5.3-2.3c0-1.3-.5-1.9-1.4-1.9-.5 0-.9.2-1.3.6s-.7 1-.9 1.7c-.2.8-.4 1.6-.4 2.4z" opacity=".3"/>
</svg>
