<svg width="24" height="24" viewBox="0 0 24 24" fill="none" xmlns="http://www.w3.org/2000/svg">
    <path fill-rule="evenodd" clip-rule="evenodd" d="M12 20C16.4183 20 20 16.4183 20 12C20 7.58172 16.4183 4 12 4C7.58172 4 4 7.58172 4 12C4 16.4183 7.58172 20 12 20ZM12 18C15.3137 18 18 15.3137 18 12C18 8.68629 15.3137 6 12 6C8.68629 6 6 8.68629 6 12C6 15.3137 8.68629 18 12 18Z" fill="#7D63EC"/>
    <path d="M11.2138 13.5644V13.435C11.2162 12.991 11.2546 12.6371 11.3288 12.3732C11.4055 12.1093 11.5169 11.8962 11.6629 11.7338C11.8089 11.5714 11.9846 11.4243 12.19 11.2923C12.3434 11.1908 12.4808 11.0855 12.602 10.9764C12.7233 10.8673 12.8198 10.7468 12.8916 10.6149C12.9633 10.4804 12.9992 10.3307 12.9992 10.1658C12.9992 9.99069 12.9584 9.83719 12.8767 9.70525C12.795 9.57331 12.6849 9.47182 12.5463 9.40078C12.4102 9.32974 12.2593 9.29422 12.0935 9.29422C11.9326 9.29422 11.7804 9.33101 11.6369 9.40459C11.4934 9.47563 11.3758 9.5822 11.2843 9.72428C11.1927 9.86383 11.1432 10.0376 11.1358 10.2457H9.62132C9.6337 9.73824 9.75248 9.31959 9.97767 8.98974C10.2029 8.65736 10.5011 8.40998 10.8723 8.24759C11.2434 8.08267 11.653 8.00021 12.1009 8.00021C12.5934 8.00021 13.0289 8.08394 13.4075 8.2514C13.7861 8.41632 14.0831 8.65609 14.2984 8.97071C14.5137 9.28534 14.6213 9.66466 14.6213 10.1087C14.6213 10.4055 14.5731 10.6694 14.4766 10.9003C14.3825 11.1287 14.2501 11.3316 14.0794 11.5092C13.9086 11.6843 13.7069 11.8429 13.4743 11.985C13.2788 12.1042 13.118 12.2286 12.9918 12.358C12.868 12.4874 12.7752 12.6371 12.7134 12.8071C12.654 12.9771 12.6231 13.1864 12.6206 13.435V13.5644H11.2138ZM11.9487 16.0002C11.7013 16.0002 11.4897 15.9114 11.314 15.7338C11.1407 15.5537 11.0554 15.338 11.0578 15.0868C11.0554 14.8381 11.1407 14.625 11.314 14.4474C11.4897 14.2698 11.7013 14.181 11.9487 14.181C12.1838 14.181 12.3904 14.2698 12.5686 14.4474C12.7468 14.625 12.8371 14.8381 12.8396 15.0868C12.8371 15.2543 12.7938 15.4078 12.7097 15.5473C12.628 15.6843 12.5204 15.7947 12.3867 15.8784C12.2531 15.9596 12.1071 16.0002 11.9487 16.0002Z" fill="#7D63EC"/>
</svg>
