<svg width="30" height="30" viewBox="0 0 30 30" fill="none" xmlns="http://www.w3.org/2000/svg">
    <path d="M21.4934 4.47359C22.4933 3.5088 24.1144 3.5088 25.1143 4.47359L29.2501 8.46414C30.2499 9.42892 30.2499 10.9931 29.2501 11.9579L16.0444 24.6999C13.9025 26.7667 10.4297 26.7667 8.28772 24.6999C6.14578 22.6332 6.14578 19.2823 8.28772 17.2156L21.4934 4.47359Z" fill="#735DE8" fill-opacity="0.8"/>
    <path d="M0.749883 17.4271C-0.250003 16.4623 -0.250001 14.8981 0.749885 13.9333L4.88565 9.94276C5.88553 8.97797 7.50667 8.97797 8.50655 9.94276L16.0439 17.2155C18.1858 19.2822 18.1863 22.6332 16.0444 24.6999C13.9025 26.7667 10.4297 26.7667 8.28772 24.6999L0.749883 17.4271Z" fill="#735DE8" fill-opacity="0.8"/>
    <path fill-rule="evenodd" clip-rule="evenodd" d="M12.1659 13.4736L8.28772 17.2156C6.14578 19.2823 6.14578 22.6332 8.28772 24.6999C10.4297 26.7667 13.9024 26.7667 16.0444 24.6999C18.1863 22.6332 18.1858 19.2822 16.0439 17.2155L12.1659 13.4736Z" fill="#735DE8"/>
    <path fill-rule="evenodd" clip-rule="evenodd" d="M8.28772 24.6999C10.4297 26.7667 13.9024 26.7667 16.0444 24.6999C18.1863 22.6332 18.1858 19.2822 16.0439 17.2155L12.1659 13.4736L8.28772 17.2156C6.14578 19.2823 6.14578 22.6332 8.28772 24.6999Z" fill="#735DE8"/>
</svg>
