<svg width="28" height="28" viewBox="0 0 28 28" fill="none" xmlns="http://www.w3.org/2000/svg">
<path d="M20.6714 4.1485C20.1204 4.1485 19.5675 4.35686 19.149 4.77543L11.4197 12.5048C11.3625 12.5617 11.322 12.6332 11.3025 12.7115L10.4897 15.9425C10.4506 16.0936 10.4943 16.2542 10.6047 16.3648C10.7153 16.4752 10.8758 16.5188 11.027 16.4798L14.258 15.66C14.3363 15.6407 14.4078 15.6001 14.4647 15.5429L22.187 7.82019C23.0241 6.98321 23.0241 5.61235 22.187 4.77537C21.7685 4.3568 21.2225 4.1485 20.6714 4.1485ZM20.6714 5.02347C20.9945 5.02347 21.3158 5.1511 21.5669 5.40237C22.0695 5.90474 22.0695 6.69095 21.5669 7.19348L20.9883 7.77211L19.1972 5.97407L19.7691 5.40237C20.0202 5.1511 20.3485 5.02347 20.6714 5.02347ZM5.58466 6.35296C5.35754 6.37433 5.18424 6.56562 5.18518 6.79381V21.3432C5.18518 21.5866 5.38262 21.784 5.62604 21.784H20.1754C20.4188 21.784 20.6163 21.5866 20.6163 21.3432V13.4072C20.618 13.2892 20.5723 13.1754 20.4894 13.0913C20.4065 13.0074 20.2933 12.96 20.1754 12.96C20.0573 12.96 19.9443 13.0074 19.8614 13.0913C19.7785 13.1754 19.7329 13.2892 19.7345 13.4072V20.9023H6.06694V7.2347H13.5621C13.68 7.23639 13.7938 7.19072 13.8779 7.10784C13.9619 7.02495 14.0092 6.91193 14.0092 6.79383C14.0092 6.67589 13.9619 6.56272 13.8779 6.47983C13.7938 6.39695 13.68 6.35128 13.5621 6.35297H5.62605C5.61237 6.35236 5.5985 6.35234 5.58466 6.35296ZM18.5705 6.60099L20.3685 8.39211L13.9276 14.833L11.5234 15.4461L12.1365 13.035L18.5705 6.60099Z" fill="#F16434"/>
</svg>
