<svg width="18" height="22" viewBox="0 0 18 22" fill="none" xmlns="http://www.w3.org/2000/svg">
<mask id="path-1-inside-1_2945_28346" fill="white">
<path fill-rule="evenodd" clip-rule="evenodd" d="M9 0C4.02944 0 0 4.02944 0 9C0 12.5337 2.03656 15.5918 5 17.0645V22L12.3588 17.3523C15.6657 16.0212 18 12.7832 18 9C18 4.02944 13.9706 0 9 0Z"/>
</mask>
<path d="M5 17.0645H7V15.825L5.89007 15.2735L5 17.0645ZM5 22H3V25.6287L6.06799 23.691L5 22ZM12.3588 17.3523L11.612 15.497L11.444 15.5646L11.2908 15.6613L12.3588 17.3523ZM2 9C2 5.13401 5.13401 2 9 2V-2C2.92487 -2 -2 2.92487 -2 9H2ZM5.89007 15.2735C3.58032 14.1256 2 11.7455 2 9H-2C-2 13.3219 0.492805 17.0579 4.10993 18.8555L5.89007 15.2735ZM3 17.0645V22H7V17.0645H3ZM6.06799 23.691L13.4268 19.0433L11.2908 15.6613L3.93201 20.309L6.06799 23.691ZM16 9C16 11.9394 14.1877 14.4602 11.612 15.497L13.1056 19.2077C17.1437 17.5823 20 13.6271 20 9H16ZM9 2C12.866 2 16 5.13401 16 9H20C20 2.92487 15.0751 -2 9 -2V2Z" fill="white" mask="url(#path-1-inside-1_2945_28346)"/>
</svg>
