<svg id="Check_Green_18px" xmlns="http://www.w3.org/2000/svg" width="18" height="18" viewBox="0 0 18 18">
  <defs>
    <style>
      .cls-1 {
        fill: #86ebc1;
      }

      .cls-2 {
        fill: #fff;
        fill-rule: evenodd;
      }
    </style>
  </defs>
  <circle id="Ellipse" class="cls-1" cx="9" cy="9" r="9"/>
  <path id="Check" class="cls-2" d="M457.719,1434.68l-4.946,4.95c-0.022.03-.031,0.06-0.057,0.09a0.922,0.922,0,0,1-.7.28,0.959,0.959,0,0,1-.723-0.28,1.131,1.131,0,0,1-.093-0.14l-2.917-2.92a0.976,0.976,0,0,1,0-1.38,0.959,0.959,0,0,1,1.379,0l2.336,2.33,4.325-4.33A0.99,0.99,0,1,1,457.719,1434.68Z" transform="translate(-444 -1427)"/>
</svg>
