<?xml version="1.0" encoding="UTF-8"?>
<svg width="17px" height="12px" viewBox="0 0 17 12" version="1.1" xmlns="http://www.w3.org/2000/svg" xmlns:xlink="http://www.w3.org/1999/xlink">
    <title>5152D3F5-B619-4279-AE30-2D0FA8759470</title>
    <g id="Page-1" stroke="none" stroke-width="1" fill="none" fill-rule="evenodd">
        <g id="1.extension_backlinks" transform="translate(-1093.000000, -1294.000000)" fill-rule="nonzero" stroke="#6B6B6B">
            <g id="Group-26" transform="translate(1094.000000, 1295.000000)">
                <path d="M0.106189348,4.6195716 C0.0540937033,4.70528636 0.0204100174,4.80046518 0.00682415224,4.9012483 L0,5.00375657 C0,5.09691097 0.0178390209,5.1889128 0.0522539775,5.27489684 L0.0958086806,5.36527252 C3.85263347,11.5433411 11.1540711,11.540693 14.8939402,5.38261187 C15.0248774,5.16701014 15.0342145,4.90150174 14.923965,4.67941281 L14.8726262,4.59176926 C11.148039,-1.53561238 3.84669933,-1.53481792 0.106189348,4.6195716 Z" id="Stroke-1"></path>
                <path d="M7.49960512,3.0022487 C8.0519829,3.0022487 8.55212461,3.22610271 8.91415498,3.5880759 C9.27610736,3.94997112 9.5,4.44993057 9.5,5.0022487 C9.5,5.55437543 9.27599479,6.05434258 8.91398602,6.41629417 C8.5519482,6.77827482 8.05185829,7.0022487 7.49960512,7.0022487 C6.94765845,7.0022487 6.44779962,6.7782357 6.08590497,6.41628389 C5.72398174,6.05430347 5.5,5.55432242 5.5,5.0022487 C5.5,4.44998357 5.7238692,3.95001023 6.08573606,3.58808621 C6.44762327,3.22614183 6.9475339,3.0022487 7.49960512,3.0022487 Z" id="Stroke-3"></path>
            </g>
        </g>
    </g>
</svg>