<svg width="24" height="24" viewBox="0 0 24 24" fill="none" xmlns="http://www.w3.org/2000/svg">
<path d="M9.73669 18.3035C14.2857 18.3035 17.9734 14.6158 17.9734 10.0668C17.9734 5.51777 14.2857 1.83008 9.73669 1.83008C5.18769 1.83008 1.5 5.51777 1.5 10.0668C1.5 14.6158 5.18769 18.3035 9.73669 18.3035Z" stroke="#F16434" stroke-width="1.5"/>
<path d="M14.1879 16.9873L18.8327 23.25" stroke="#F16434" stroke-width="1.5"/>
<path d="M17.22 12C20.3266 12 22.845 9.4816 22.845 6.375C22.845 3.2684 20.3266 0.75 17.22 0.75C14.1134 0.75 11.595 3.2684 11.595 6.375C11.595 9.4816 14.1134 12 17.22 12Z" fill="#F6F7F7" stroke="#F16434" stroke-width="1.5"/>
<path d="M16.3738 9.07789C16.3738 8.61567 16.7421 8.22396 17.2199 8.22396C17.6978 8.22396 18.066 8.60784 18.066 9.07789C18.066 9.53228 17.6978 9.90832 17.2199 9.90832C16.7421 9.90832 16.3738 9.53228 16.3738 9.07789ZM16.4992 2.83398H17.9485L17.8388 7.80091H16.6089L16.4992 2.83398Z" fill="#F16434"/>
</svg>
