<?xml version="1.0" encoding="UTF-8"?>
<svg width="20px" height="18px" viewBox="0 0 20 18" version="1.1" xmlns="http://www.w3.org/2000/svg" xmlns:xlink="http://www.w3.org/1999/xlink">
    <title>0552B108-C1F2-4232-B2A7-6CA8ACE3A7CA</title>
    <g id="Page-1" stroke="none" stroke-width="1" fill="none" fill-rule="evenodd">
        <g id="Youtube-Extension-3" transform="translate(-1375.000000, -751.000000)" fill="#FFFFFF" fill-rule="nonzero" stroke="#212121">
            <g id="Group-3" transform="translate(1376.000000, 752.000000)">
                <path d="M12.3296703,9.06822527 L12.3296703,13.5824176 L2.24175824,13.5824176 L2.24175824,3.34615385 L5.6043956,3.34615385 L5.6043956,1.07142857 L1.12087912,1.07142857 C0.502153846,1.07142857 -5.18696197e-13,1.58096703 -5.18696197e-13,2.20879121 L-5.18696197e-13,14.7197802 C-5.18696197e-13,15.3487418 0.502153846,15.8571429 1.12087912,15.8571429 L13.4505495,15.8571429 C14.0703956,15.8571429 14.5714286,15.3487418 14.5714286,14.7197802 L14.5714286,9.06822527 L12.3296703,9.06822527 Z" id="Path"></path>
                <path d="M17.775,3.48757692 L13.275,0.112624007 C13.10625,-0.0156242031 12.87675,-0.0358739206 12.686625,0.0597497452 C12.495375,0.155373411 12.375,0.349995695 12.375,0.562617729 L12.375,2.25009418 L10.6875,2.25009418 C7.275375,2.25009418 4.5,5.02543046 4.5,8.43750785 C4.5,8.69850421 4.68,8.92575104 4.933125,8.9853752 C4.975875,8.99550006 5.01975,9 5.0625,9 C5.27175,9 5.468625,8.88300163 5.565375,8.68950433 L5.698125,8.42513302 C6.561,6.69828212 8.29575,5.62504709 10.22625,5.62504709 L12.375,5.62504709 L12.375,7.31252355 C12.375,7.52514558 12.495375,7.71976786 12.6855,7.81539153 C12.875625,7.91101519 13.105125,7.89076548 13.275,7.76251727 L17.775,4.38756436 C17.91675,4.28181583 18,4.11419317 18,3.93757064 C18,3.7609481 17.91675,3.59332544 17.775,3.48757692 Z" id="Path"></path>
            </g>
        </g>
    </g>
</svg>