<svg xmlns="http://www.w3.org/2000/svg" width="136.5" height="21.969" viewBox="0 0 136.5 21.969">
  <defs>
    <style>
      .cls-1 {
        fill: #f15e2b;
        fill-rule: evenodd;
      }
    </style>
  </defs>
  <path id="Ubersuggest" class="cls-1" d="M4505.93,111.648c4.34,0,6.77-2.665,6.77-6.625V94.534h-3.39v10.489a3.386,3.386,0,1,1-6.77,0V94.534h-3.38v10.489C4499.16,108.983,4501.58,111.648,4505.93,111.648Zm9.6-.312h3.12v-1.3a4.862,4.862,0,0,0,3.72,1.608c3.6,0,6.14-2.713,6.14-6.577,0-3.888-2.35-6.6-5.95-6.6a4.7,4.7,0,0,0-3.72,1.632V93.982h-3.31v17.354Zm3.21-6.241c0-2.352,1.4-3.7,3.22-3.7,1.92,0,3.22,1.512,3.22,3.7,0,2.232-1.35,3.624-3.22,3.624C4519.94,108.719,4518.74,107.087,4518.74,105.1Zm11,0a6.263,6.263,0,0,0,6.6,6.553,5.961,5.961,0,0,0,5.28-2.761l-2.19-1.656a3.655,3.655,0,0,1-3.04,1.536,3.051,3.051,0,0,1-3.27-2.88h8.84c0.02-.24.02-0.48,0.02-0.72,0-4.1-2.21-6.7-6.1-6.7C4532.31,98.471,4529.74,101.3,4529.74,105.1Zm3.48-1.368a2.657,2.657,0,0,1,2.71-2.544,2.565,2.565,0,0,1,2.69,2.544h-5.4Zm17.3-5.257a3.646,3.646,0,0,0-3.45,2.136V98.783h-3.24v12.554h3.31v-5.473c0-2.5.91-4.032,3.38-4.032V98.471Zm5.79,13.177c2.71,0,4.82-1.536,4.82-3.985,0-4.488-5.95-3.528-5.95-5.52a1.109,1.109,0,0,1,1.3-1.008,2.828,2.828,0,0,1,2.25,1.2l2.19-1.632a4.815,4.815,0,0,0-4.3-2.233c-2.57,0-4.56,1.392-4.56,3.721,0,4.464,5.93,3.72,5.93,5.64,0,0.72-.6,1.128-1.54,1.128a3.6,3.6,0,0,1-2.88-1.368l-1.94,1.728A5.36,5.36,0,0,0,4556.31,111.648Zm10.85,0a3.964,3.964,0,0,0,3.36-1.777v1.465h3.24V98.783h-3.31v7.537a2.192,2.192,0,0,1-2.24,2.352,2.1,2.1,0,0,1-2.08-2.256V98.783h-3.32v7.249C4562.81,108.7,4563.58,111.648,4567.16,111.648Zm10.01,3.144a10.12,10.12,0,0,0,4.61,1.152c3.69,0,6.74-1.512,6.74-6.193V98.783h-3.12v1.32a4.783,4.783,0,0,0-3.74-1.632c-3.58,0-6.12,2.736-6.12,6.6s2.37,6.577,6,6.577a4.685,4.685,0,0,0,3.67-1.608v0.576c0,1.944-1.66,2.5-3.46,2.5a8.16,8.16,0,0,1-3.57-.864Zm8.13-9.745c0,2.232-1.29,3.672-3.21,3.672-1.87,0-3.22-1.464-3.22-3.672s1.32-3.648,3.19-3.648C4584.01,101.4,4585.3,102.911,4585.3,105.047Zm6.63,9.745a10.12,10.12,0,0,0,4.61,1.152c3.69,0,6.74-1.512,6.74-6.193V98.783h-3.12v1.32a4.783,4.783,0,0,0-3.74-1.632c-3.58,0-6.12,2.736-6.12,6.6s2.37,6.577,6,6.577a4.666,4.666,0,0,0,3.67-1.608v0.576c0,1.944-1.66,2.5-3.46,2.5a8.2,8.2,0,0,1-3.57-.864Zm8.14-9.745c0,2.232-1.3,3.672-3.22,3.672-1.87,0-3.22-1.464-3.22-3.672s1.32-3.648,3.2-3.648C4598.77,101.4,4600.07,102.911,4600.07,105.047Zm5.04,0.048a6.257,6.257,0,0,0,6.6,6.553,5.961,5.961,0,0,0,5.28-2.761l-2.19-1.656a3.661,3.661,0,0,1-3.05,1.536,3.048,3.048,0,0,1-3.26-2.88h8.83a5.781,5.781,0,0,0,.03-0.72c0-4.1-2.21-6.7-6.1-6.7C4607.67,98.471,4605.11,101.3,4605.11,105.1Zm3.48-1.368a2.657,2.657,0,0,1,2.71-2.544,2.565,2.565,0,0,1,2.69,2.544h-5.4Zm14.45,7.921c2.71,0,4.82-1.536,4.82-3.985,0-4.488-5.95-3.528-5.95-5.52a1.1,1.1,0,0,1,1.29-1.008,2.832,2.832,0,0,1,2.26,1.2l2.18-1.632a4.809,4.809,0,0,0-4.29-2.233c-2.57,0-4.56,1.392-4.56,3.721,0,4.464,5.93,3.72,5.93,5.64,0,0.72-.6,1.128-1.54,1.128a3.568,3.568,0,0,1-2.88-1.368l-1.94,1.728A5.347,5.347,0,0,0,4623.04,111.648Zm6.91-12.865h-1.35v2.689h1.33v4.944c0,3.408,1.32,5.089,4.32,5.089a6.675,6.675,0,0,0,1.41-.12v-2.833a5.36,5.36,0,0,1-.6.024c-1.27,0-1.85-.384-1.85-2.256v-4.848h2.36V98.783h-2.36v-2.64h-3.26v2.64Z" transform="translate(-4499.16 -93.969)"/>
</svg>
