<svg xmlns="http://www.w3.org/2000/svg" width="32" height="29" viewBox="0 0 32 29">
  <defs>
    <style>
      .cls-1 {
        fill: #ffffff;
        fill-rule: evenodd;
      }
    </style>
  </defs>
  <path id="PC_32px" class="cls-1" d="M354,1178h28a2,2,0,0,1,2,2v20a2,2,0,0,1-2,2H354a2,2,0,0,1-2-2v-20A2,2,0,0,1,354,1178Zm0,1h28a1,1,0,0,1,1,1v20a1,1,0,0,1-1,1H354a1,1,0,0,1-1-1v-20A1,1,0,0,1,354,1179Zm12,3h4v1h-4v-1Zm-14,13h32v1H352v-1Zm12,6h1v6h-1v-6Zm7,0h1v6h-1v-6Zm-11,5h16v1H360v-1Z" transform="translate(-352 -1178)"/>
</svg>
