<svg xmlns="http://www.w3.org/2000/svg" width="21" height="32" viewBox="0 0 21 32">
  <defs>
    <style>
      .cls-1 {
        fill: #ffffff;
        fill-rule: evenodd;
      }
    </style>
  </defs>
  <path id="Phone_32px" class="cls-1" d="M883,1202v3a3,3,0,0,1-3,3H865a3,3,0,0,1-3-3v-26a3,3,0,0,1,3-3h15a3,3,0,0,1,3,3v22h0v1h0Zm-1-23a2,2,0,0,0-2-2H865a2,2,0,0,0-2,2v3h19v-3Zm0,4H863v18h19v-18Zm0,19H863v3a2,2,0,0,0,2,2h15a2,2,0,0,0,2-2v-3Zm-9.5,4a1.5,1.5,0,1,1,1.5-1.5A1.5,1.5,0,0,1,872.5,1206Zm0-2a0.5,0.5,0,1,0,.5.5A0.5,0.5,0,0,0,872.5,1204Z" transform="translate(-862 -1176)"/>
</svg>
