<svg xmlns="http://www.w3.org/2000/svg" width="22" height="20" viewBox="0 0 22 20">
  <metadata><?xpacket begin="﻿" id="W5M0MpCehiHzreSzNTczkc9d"?>
<x:xmpmeta xmlns:x="adobe:ns:meta/" x:xmptk="Adobe XMP Core 5.6-c142 79.160924, 2017/07/13-01:06:39        ">
   <rdf:RDF xmlns:rdf="http://www.w3.org/1999/02/22-rdf-syntax-ns#">
      <rdf:Description rdf:about=""/>
   </rdf:RDF>
</x:xmpmeta>
                                                                                                    
                                                                                                    
                                                                                                    
                                                                                                    
                                                                                                    
                                                                                                    
                                                                                                    
                                                                                                    
                                                                                                    
                                                                                                    
                                                                                                    
                                                                                                    
                                                                                                    
                                                                                                    
                                                                                                    
                                                                                                    
                                                                                                    
                                                                                                    
                                                                                                    
                                                                                                    
                           
<?xpacket end="w"?></metadata>
<defs>
    <style>
      .cls-1 {
        fill: #f16334;
        fill-rule: evenodd;
      }
    </style>
  </defs>
  <path id="Arrow_Default_22px" class="cls-1" d="M409,761h18a2,2,0,0,1,2,2v16a2,2,0,0,1-2,2H409a2,2,0,0,1-2-2V763A2,2,0,0,1,409,761Zm0.5,1h17a1.5,1.5,0,0,1,1.5,1.5v15a1.5,1.5,0,0,1-1.5,1.5h-17a1.5,1.5,0,0,1-1.5-1.5v-15A1.5,1.5,0,0,1,409.5,762Zm2.5,5h1v5h-1v-5Zm12,4.669L419.669,776,419,775.331,422.334,772H412v-1h10.334L419,767.669l0.666-.666L424,771.331v0.338Z" transform="translate(-407 -761)"/>
</svg>
