<svg width="40" height="40" viewBox="0 0 40 40" fill="none" xmlns="http://www.w3.org/2000/svg">
<g clip-path="url(#clip0_7312_20265)">
<path d="M4.47199 31.5103C2.82422 35.6297 4.47158 41.8463 13.1228 38.3074C23.697 33.9817 30.8442 16.0979 33.3147 6.93536L34.7498 2.46875" stroke="url(#paint0_linear_7312_20265)" stroke-width="1.5" stroke-linecap="round" stroke-linejoin="round"/>
<path d="M30.4257 4.01821L34.5964 1.37907L37.2355 5.5498" stroke="url(#paint1_linear_7312_20265)" stroke-width="1.5" stroke-linecap="round" stroke-linejoin="round"/>
<path d="M19.3016 38.9236C28.8571 38.9236 36.6033 31.1774 36.6033 21.6219C36.6033 18.7224 35.89 15.9895 34.6294 13.589M8.17915 34.8753C4.40129 31.7015 2 26.9421 2 21.6219C2 12.0665 9.7462 4.32031 19.3016 4.32031C22.3147 4.32031 25.1479 5.09053 27.6151 6.44482" stroke="url(#paint2_linear_7312_20265)" stroke-width="1.5" stroke-linecap="round" stroke-linejoin="round"/>
<rect x="7.98363" y="17.7461" width="3.81878" height="7.63755" rx="1.90939" fill="url(#paint3_linear_7312_20265)"/>
<rect x="13.258" y="15.2012" width="3.81878" height="10.1834" rx="1.90939" fill="url(#paint4_linear_7312_20265)"/>
<rect x="18.5336" y="11.3828" width="3.81878" height="14.0022" rx="1.90939" fill="url(#paint5_linear_7312_20265)"/>
</g>
<defs>
<linearGradient id="paint0_linear_7312_20265" x1="3.55718" y1="73.2618" x2="26.2683" y2="10.9088" gradientUnits="userSpaceOnUse">
<stop stop-color="#F16434"/>
<stop offset="1" stop-color="#FF912C"/>
</linearGradient>
<linearGradient id="paint1_linear_7312_20265" x1="29.5599" y1="7.49451" x2="32.3048" y2="0.660986" gradientUnits="userSpaceOnUse">
<stop stop-color="#F16434"/>
<stop offset="1" stop-color="#FF912C"/>
</linearGradient>
<linearGradient id="paint2_linear_7312_20265" x1="6.94436" y1="4.14353" x2="40.4808" y2="28.8094" gradientUnits="userSpaceOnUse">
<stop stop-color="#F16434"/>
<stop offset="1" stop-color="#FF912C"/>
</linearGradient>
<linearGradient id="paint3_linear_7312_20265" x1="7.93912" y1="33.0453" x2="15.1768" y2="21.7053" gradientUnits="userSpaceOnUse">
<stop stop-color="#F16434"/>
<stop offset="1" stop-color="#FF912C"/>
</linearGradient>
<linearGradient id="paint4_linear_7312_20265" x1="13.2135" y1="35.6002" x2="23.7162" y2="23.2585" gradientUnits="userSpaceOnUse">
<stop stop-color="#F16434"/>
<stop offset="1" stop-color="#FF912C"/>
</linearGradient>
<linearGradient id="paint5_linear_7312_20265" x1="18.4891" y1="39.4314" x2="32.94" y2="27.0815" gradientUnits="userSpaceOnUse">
<stop stop-color="#F16434"/>
<stop offset="1" stop-color="#FF912C"/>
</linearGradient>
<clipPath id="clip0_7312_20265">
<rect width="40" height="40" fill="white"/>
</clipPath>
</defs>
</svg>
